<svg width="60" height="40" viewBox="0 0 60 40" fill="none" xmlns="http://www.w3.org/2000/svg">
  <path opacity="0.5" fill-rule="evenodd" clip-rule="evenodd" d="M30 8C19.4772 8 11 16.4772 11 27C11 27.4784 11.0163 27.9523 11.0489 28.4198C5.13734 29.6379 1 33.8852 1 39.4198C1 45.098 5.902 50 11.5802 50H48.4198C54.098 50 59 45.098 59 39.4198C59 33.8901 54.8571 29.6464 49 28.4198C49.0326 27.9523 49.0489 27.4784 49.0489 27C49.0489 16.4772 40.5228 8 30 8ZM48.4198 48H11.5802C7.27253 48 4 44.7275 4 39.4198C4 35.965 7.07453 33.2911 11.1036 32.2034C11.6964 32.0026 12.158 31.6068 12.2467 30.9113C12.3583 30.1127 12.4198 29.2933 12.4198 28.5C12.4198 19.9292 19.9292 13 30 13C40.0708 13 47.5802 19.9292 47.5802 28.5C47.5802 29.2987 47.6417 30.1127 47.7533 30.9113C47.842 31.6068 48.3036 32.0026 48.8964 32.2034C52.9255 33.2911 56 35.965 56 39.4198C56 44.7275 52.7275 48 48.4198 48Z" fill="url(#paint0_linear)"/>
  <defs>
    <linearGradient id="paint0_linear" x1="1" y1="8" x2="59" y2="50" gradientUnits="userSpaceOnUse">
      <stop offset="0.259336" stop-color="#FF8C00"/>
      <stop offset="1" stop-color="#FF4500"/>
    </linearGradient>
  </defs>
</svg>
